<svg xmlns="http://www.w3.org/2000/svg" width="148" height="30" viewBox="0 0 148 30" fill="none"><g clip-path="url(#clip0_7_139)"><path d="M97.5117 14.3126H103.713C106.798 14.3126 108.569 12.6447 108.569 10.1859V10.1025C108.569 7.35041 106.676 5.93266 103.591 5.93266H97.5145V14.3126H97.5117ZM112.516 3.09715C114.12 4.72484 114.985 7.01683 114.985 9.76893V9.85233C114.985 14.1689 112.982 16.9325 109.832 18.4595L113.816 24.8897C114.48 25.9624 114.48 27.3542 113.737 28.3723C112.326 30.299 109.67 30.0345 108.552 28.2314L103.443 19.9865H97.5173V26.549C97.5173 27.8863 96.6943 29.1085 95.4427 29.5255C93.3057 30.2386 91.3049 28.6167 91.3049 26.5462V6.43304H85.0471V26.549C85.0471 27.8863 84.2241 29.1085 82.9725 29.5255C80.8354 30.2386 78.8346 28.6167 78.8346 26.5462V6.43304H72.5882V26.5404C72.5882 28.1767 71.3451 29.5283 69.7728 29.6807C69.7672 29.6807 69.7587 29.6836 69.753 29.6836C69.4834 29.7095 69.191 29.6951 68.9356 29.6836C68.0956 29.6549 67.2697 29.2781 66.6879 28.5736L52.9803 11.9689V26.6526C52.9803 27.5354 52.617 28.332 52.038 28.9072C52.0267 28.9187 52.0153 28.9273 52.004 28.9359C51.9416 28.9963 51.8791 29.0509 51.8138 29.1056C51.794 29.1228 51.7713 29.1372 51.7486 29.1545C51.689 29.2005 51.6265 29.2465 51.5641 29.2896C51.5442 29.304 51.5215 29.3155 51.5017 29.3299C51.4335 29.373 51.3626 29.4133 51.2916 29.4536C51.286 29.4564 51.2803 29.4593 51.2746 29.4622C51.2604 29.4679 51.2491 29.4737 51.2349 29.4794C51.1583 29.5168 51.0816 29.5542 50.9993 29.5858C50.9823 29.5916 50.9653 29.5973 50.9511 29.606C50.8688 29.6376 50.7865 29.6635 50.7042 29.6894C50.69 29.6922 50.6758 29.6951 50.6616 29.7009C50.5765 29.7239 50.4885 29.744 50.4005 29.7584C50.3892 29.7584 50.3806 29.7613 50.3693 29.7641C50.2785 29.7785 50.1848 29.79 50.0912 29.7987C50.0855 29.7987 50.0826 29.7987 50.077 29.7987C50.0089 29.8044 49.9379 29.8102 49.8698 29.8102C49.3277 29.8102 48.8197 29.6664 48.3742 29.4162C47.8434 29.1228 47.3922 28.6685 47.097 28.0847L38.075 10.0709L29.1693 27.8518C28.7038 28.9963 27.5885 29.8073 26.2972 29.8073C26.2291 29.8073 26.1666 29.8015 26.0985 29.7958C26.0815 29.7958 26.0645 29.7958 26.0474 29.7929C25.9822 29.7871 25.9169 29.7785 25.8516 29.7699C25.8062 29.7641 25.7608 29.7584 25.7154 29.7498C25.6757 29.7411 25.6388 29.7325 25.599 29.7239C25.5281 29.7066 25.46 29.6894 25.3919 29.6692C25.3777 29.6664 25.3663 29.6606 25.3521 29.6549C25.1932 29.6031 25.0343 29.5427 24.881 29.4622C23.7345 28.8698 23.1073 27.6447 23.1952 26.4139V12.7051L17.2212 20.9298C16.6082 21.7724 15.6574 22.2066 14.701 22.1894C13.7446 22.2066 12.7939 21.7753 12.1809 20.9298L6.21818 12.7166V26.6612C6.21818 27.9265 5.48597 29.1056 4.32239 29.5657C2.11724 30.4371 0.00575455 28.7835 0.00575455 26.6526V3.34159C7.85054e-05 1.61038 1.39639 0.19263 3.10487 0.19263C3.15312 0.19263 3.19853 0.198382 3.24678 0.201258C4.20603 0.198382 5.15393 0.635498 5.7641 1.47235L14.6954 13.7059L23.6266 1.47235C24.2283 0.649877 25.1563 0.212761 26.0985 0.201258C26.1638 0.198382 26.2291 0.189755 26.2944 0.189755C28.0028 0.189755 29.3991 1.60751 29.3991 3.34159V13.4758L35.1887 1.91809C35.7506 0.793666 36.9 0.160997 38.0721 0.201258C39.2414 0.160997 40.3908 0.793666 40.9556 1.91809L46.7593 13.5074V3.28696C46.7593 1.6909 47.9456 0.362301 49.4668 0.163873C49.4838 0.160997 49.5037 0.158121 49.5207 0.155245C49.5434 0.155245 49.569 0.149494 49.5945 0.149494C49.6257 0.149494 49.6541 0.140867 49.6853 0.140867C49.7165 0.140867 49.7449 0.140867 49.7733 0.140867C49.8045 0.140867 49.8329 0.135115 49.8641 0.135115C49.884 0.135115 49.9039 0.135115 49.9237 0.137991C50.0145 0.137991 50.0968 0.137991 50.1962 0.135115C51.0816 0.123612 51.9671 0.503213 52.5829 1.24516L66.3701 17.893V3.48826C66.3644 3.41924 66.3587 3.3531 66.3587 3.28408C66.3587 1.55287 67.7579 0.137991 69.4692 0.137991H104.124C107.785 0.137991 110.626 1.17902 112.516 3.09715ZM147.994 20.6595C147.898 15.5751 144.566 13.5132 138.697 12.0839C133.696 10.8905 132.451 10.2894 132.414 8.37131V8.28791C132.385 6.87016 133.64 5.71985 136.066 5.67097C138.041 5.63358 140.028 6.30364 142.151 7.51146C142.713 7.83067 143.275 7.98883 144.007 7.92557C145.27 7.81629 146.487 6.69186 146.644 5.4179C146.828 3.89662 146.019 2.85847 145.222 2.40409C142.596 0.793666 139.534 -0.0633128 136.038 0.00282981C130.155 0.11786 126.025 3.70107 126.127 8.99535V9.07875C126.238 14.8734 130.013 16.4263 135.842 17.8125C140.678 18.9685 141.683 19.7852 141.711 21.41V21.4934C141.745 23.2045 140.201 24.2743 137.61 24.3261C134.812 24.3807 132.408 23.4259 130.197 21.8443C129.678 21.4906 128.903 21.1426 127.731 21.364C127.087 21.4848 126.499 21.8443 126.108 22.3763C124.921 23.9896 125.551 25.9106 126.712 26.7072C129.964 28.9791 133.813 30.0718 137.596 29.9971C143.808 29.8763 148.105 26.5375 147.994 20.7457V20.6623V20.6595ZM123.63 3.34159V26.5462C123.63 27.8834 122.807 29.1056 121.555 29.5226C119.418 30.2358 117.418 28.6138 117.418 26.5433V3.34159C117.418 2.00436 118.241 0.782163 119.492 0.365176C121.629 -0.348014 123.63 1.27392 123.63 3.34447" fill="#037DA3"></path><path d="M122.716 5.56164C123.925 4.33656 123.925 2.33503 122.719 1.10995C122.131 0.514665 121.362 0.212709 120.59 0.195455C120.568 0.195455 120.545 0.192579 120.522 0.192579C120.505 0.192579 120.485 0.192579 120.468 0.192579C119.691 0.206958 118.916 0.511789 118.326 1.10995C117.119 2.33503 117.119 4.33656 118.328 5.56164L120.522 7.7846L122.716 5.56164ZM66.37 3.29266V3.48821C66.475 5.12452 67.8259 6.43299 69.4691 6.43299H72.5824V3.29266C72.5824 1.55857 71.1832 0.137939 69.4748 0.137939C67.7663 0.137939 66.37 1.55857 66.37 3.29266ZM94.4011 6.43299C96.1096 6.43299 97.5087 5.01812 97.5116 3.2869C97.5116 2.4443 97.1795 1.67935 96.6431 1.11282C96.6261 1.09557 96.6119 1.07832 96.5977 1.06106C96.5835 1.04668 96.5694 1.03518 96.558 1.02368C95.9989 0.47728 95.2383 0.137939 94.4039 0.137939C92.6954 0.137939 91.2991 1.55569 91.2991 3.28978V6.43299H94.4011ZM52.6283 25.229L46.7592 13.5103V26.6583C46.7592 27.8431 47.412 28.8812 48.3684 29.419C48.8849 29.7066 49.4781 29.8417 50.074 29.8015C50.0769 29.8015 50.0826 29.8015 50.0882 29.8015C50.1819 29.7957 50.2727 29.7842 50.3664 29.767C50.3777 29.767 50.3862 29.7641 50.3976 29.7612C50.4855 29.7468 50.5735 29.7267 50.6587 29.7037C50.6729 29.7008 50.687 29.6979 50.7012 29.6922C50.7835 29.6692 50.8658 29.6404 50.9481 29.6088C50.9652 29.603 50.9822 29.5973 50.9964 29.5915C51.0759 29.5599 51.1525 29.5254 51.2319 29.4851C51.249 29.4765 51.2688 29.4679 51.2859 29.4593C51.3597 29.4219 51.4278 29.3787 51.4959 29.3356C51.5157 29.3212 51.5385 29.3097 51.5583 29.2953C51.6236 29.2522 51.6832 29.2062 51.7428 29.1602C51.7627 29.1429 51.7854 29.1285 51.8052 29.1113C51.8705 29.0567 51.9329 28.9991 51.9954 28.9416C52.0067 28.9301 52.0181 28.9215 52.0266 28.9129C52.9688 27.9754 53.2526 26.4828 52.6254 25.229M29.4019 26.6611C29.4019 27.0839 29.3167 27.4865 29.1663 27.8546L29.05 28.0846C28.4739 29.2321 27.2904 29.8676 26.0956 29.7986C26.0786 29.7986 26.0615 29.7986 26.0445 29.7986C25.9792 29.7928 25.914 29.7842 25.8487 29.7756C25.8033 29.7698 25.7579 29.7641 25.7125 29.7555C25.6727 29.7468 25.6358 29.7382 25.5961 29.7296C25.5251 29.7123 25.457 29.6951 25.3889 29.6749C25.3747 29.6721 25.3634 29.6663 25.3492 29.6606C24.1005 29.2522 23.1895 28.0588 23.1895 26.6611V26.4196C23.2178 26.0141 23.3228 25.6115 23.5158 25.229L29.4019 13.4786V26.6611Z" fill="#02597C"></path></g><defs><clipPath id="clip0_7_139"><rect width="148" height="30" fill="white"></rect></clipPath></defs></svg>