<?xml version="1.0" encoding="UTF-8"?>
<svg id="Camada_2" data-name="Camada 2" xmlns="http://www.w3.org/2000/svg" viewBox="0 0 800 470.02">
  <defs>
    <style>
      .cls-1 {
        fill: #ede7e1;
      }
    </style>
  </defs>
  <g id="Camada_1-2" data-name="Camada 1">
    <g>
      <polygon class="cls-1" points="470.01 0 470.01 470.02 391.24 470.02 422.79 69.06 413.53 69.06 358.69 329.73 333.77 329.73 277.79 69.06 268.53 69.06 300.54 470.02 222.53 470.02 222.53 0 302.94 0 344.33 227.18 347.45 227.18 388.84 0 470.01 0"/>
      <path class="cls-1" d="M658.77,69.05l-7.32-69.05h-107.85l-7.2,69.05-41.88,400.95h68.9l12.5-140.28h43.86l13.38,140.28h68.1l-42.49-400.95ZM579.19,292.91l13.95-223.86h11.81l11.28,223.86h-37.04Z"/>
      <path class="cls-1" d="M800,0v470.01h-74.2V104.96c0-20,16.21-36.2,36.2-36.2h0v-9.72h0c-20,0-36.2-16.21-36.2-36.2V0h74.2Z"/>
      <path class="cls-1" d="M179.76,293.75c-18.41-45.43-62.42-63.45-108.16-66.58v-8.8c54.12-4.54,104.31-30.87,109.72-91.43C187.8,54.46,146.07,6.55,73.89.69H0v469.09h77.13c31.63-1.83,59.72-10.63,87.04-44.66,27.52-34.26,31.78-91.39,15.59-131.36ZM71.61,69.05c49.12-7.28,49.73,112.35,0,104.46v-104.46ZM113.57,349.28c-1.79,25.04-11.66,53.47-41.96,50.23v-129.15c42-.69,44.17,47.48,41.96,78.93Z"/>
    </g>
  </g>
</svg>