<?xml version="1.0" encoding="UTF-8"?>
<svg id="Camada_2" data-name="Camada 2" xmlns="http://www.w3.org/2000/svg" viewBox="0 0 800 800">
  <defs>
    <style>
      .cls-1 {
        fill: #db5500;
      }
    </style>
  </defs>
  <g id="Camada_1-2" data-name="Camada 1">
    <path class="cls-1" d="M716.08,368.95c-61.71-22.82-117.29-57.71-163.98-101.89-.17-.14-.33-.3-.47-.44-6.26-5.91-12.34-11.98-18.24-18.24-.14-.14-.3-.3-.44-.47-44.18-46.7-79.07-102.28-101.89-163.99L400,0l-31.05,83.92c-22.82,61.71-57.71,117.29-101.89,163.99-6.18,6.57-12.58,12.97-19.15,19.15-46.69,44.18-102.28,79.07-163.98,101.89L0,400l83.92,31.05c61.71,22.82,117.29,57.71,163.98,101.89.17.14.33.3.47.44,6.26,5.91,12.34,11.98,18.24,18.24.14.14.3.3.44.47,44.18,46.69,79.07,102.28,101.89,163.98l31.05,83.92,31.05-83.92c22.82-61.71,57.71-117.29,101.89-163.98,6.18-6.57,12.58-12.97,19.15-19.15,46.69-44.18,102.28-79.07,163.98-101.89l83.92-31.05-83.92-31.05ZM371.27,603.78h-28.7c0-11.59-1.46-23.02-4.25-34.08-2.79-11.04-6.95-21.69-12.36-31.71-6.32-11.73-14.38-22.63-23.98-32.23l-7.73-7.73c-9.6-9.6-20.5-17.66-32.23-23.98-4.14-2.24-8.42-4.28-12.75-6.07-16.67-6.9-34.66-10.54-53.04-10.54v-28.7h175.05v175.05ZM371.27,371.27h-175.05v-28.7c23.18,0,45.76-5.8,65.79-16.61,11.73-6.32,22.63-14.38,32.23-23.98l7.73-7.73c9.6-9.6,17.66-20.5,23.98-32.23,2.24-4.14,4.28-8.42,6.07-12.75,6.9-16.67,10.54-34.66,10.54-53.04h28.7v175.05ZM603.78,457.43c-23.18,0-45.76,5.8-65.79,16.61-11.73,6.32-22.63,14.38-32.23,23.98l-7.73,7.73c-9.6,9.6-17.66,20.5-23.98,32.23-2.23,4.14-4.28,8.42-6.07,12.75-6.9,16.67-10.54,34.66-10.54,53.04h-28.7v-175.05h175.05v28.7ZM603.78,371.27h-175.05v-175.05h28.7c0,11.59,1.46,23.02,4.25,34.08,2.79,11.04,6.95,21.69,12.36,31.71,6.32,11.73,14.38,22.63,23.98,32.23l7.73,7.73c9.6,9.6,20.5,17.66,32.23,23.98,4.14,2.24,8.42,4.28,12.75,6.07,16.67,6.9,34.66,10.54,53.04,10.54v28.7Z"/>
  </g>
</svg>